<?xml version="1.0" encoding="utf-8"?>
<!-- Generator: Adobe Illustrator 28.2.0, SVG Export Plug-In . SVG Version: 6.00 Build 0)  -->
<svg version="1.1" id="Layer_1" xmlns="http://www.w3.org/2000/svg" xmlns:xlink="http://www.w3.org/1999/xlink" x="0px" y="0px"
	 viewBox="0 0 800 800" style="enable-background:new 0 0 800 800;" xml:space="preserve">
<style type="text/css">
	.st0{fill:#A2F008;}
</style>
<path class="st0" d="M399.9,0c-0.6,0-1.3,0.1-1.9,0.1c-2.7,0.2-5.3,0.8-7.9,1.7c-1.9,0.7-3.8,1.6-5.5,2.6L64.5,189.2
	c-9.2,5.3-14.8,15.1-14.8,25.7v370.4c0,10.9,6,21,15.7,26.1L385.3,796l1.8,1v0.1c0.9,0.4,1.8,0.8,2.8,1.2l0.4,0.1
	c0.9,0.3,1.9,0.6,2.8,0.8c0.3,0,0.4,0.1,0.5,0.1c3.2,0.7,6.6,0.9,9.9,0.5c1-0.1,1.9-0.3,2.9-0.5c0.3,0,0.4-0.1,0.5-0.1
	c1-0.2,1.9-0.5,2.8-0.8l0.4-0.1c0.9-0.3,1.9-0.7,2.8-1.2V797c0.6-0.3,1.2-0.6,1.8-1l320-184.7c9.6-5.2,15.6-15.2,15.6-26.1V216
	l0-0.9v-0.3c0-8.7-3.8-16.9-10.4-22.5l-1-0.8c0-0.1-0.3-0.2-0.3-0.2c-1.1-0.9-2.3-1.6-3.6-2.3L415.1,4.2c-4.7-2.8-10-4.3-15.4-4.2
	H399.9z M400.2,75.1c2.4,0,4.8,0.6,7,1.9l217.9,125.8c6.7,3.8,8.9,12.4,5.1,19c-1.2,2.1-3,3.9-5.1,5.1L407.2,352.7
	c-4.3,2.5-9.6,2.5-13.9,0L175.3,226.9c-6.7-3.8-8.9-12.4-5.1-19c1.2-2.1,3-3.9,5.1-5.1L393.2,77C395.4,75.7,397.8,75.1,400.2,75.1z
	 M130.9,290.4c2.5,0,5,0.6,7.2,1.9l217.5,125.5c4.3,2.5,6.9,7.1,6.9,12v251.1c0,7.7-6.2,13.9-13.9,13.9c-2.4,0-4.9-0.6-7-1.9
	L124.1,567.4c-4.3-2.5-7-7.1-7-12.1v-251C117.2,296.3,123.7,290.5,130.9,290.4L130.9,290.4z M669.5,290.4
	c7.2,0.1,13.7,5.9,13.7,13.9v251.1c0,5-2.6,9.6-6.9,12.1L458.8,693c-6.6,3.8-15.1,1.6-19-5.1c-1.2-2.1-1.9-4.5-1.9-7V429.8
	c0-5,2.7-9.5,7-12l217.4-125.6C664.5,291,667,290.3,669.5,290.4L669.5,290.4z"/>
</svg>
